<svg xmlns="http://www.w3.org/2000/svg" viewBox="0 0 27.51 27.51">
  <defs>
    <style>
      .cls-1 {
        fill: #fff;
      }
    </style>
  </defs>
  <title>calendarWhite</title>
  <g id="Layer_2" data-name="Layer 2">
    <g id="Layer_1-2" data-name="Layer 1">
      <g>
        <path class="cls-1" d="M15.76,18.6v.78A1.63,1.63,0,0,1,14.13,21h-.78a1.63,1.63,0,0,1-1.63-1.63V18.6A1.63,1.63,0,0,1,13.35,17h.78A1.63,1.63,0,0,1,15.76,18.6Z"/>
        <path class="cls-1" d="M24.51,0H3A3,3,0,0,0,0,3V7.73a.16.16,0,0,0,.08.12A1.15,1.15,0,0,0,.4,8l.8.33a.55.55,0,0,0,.31,0c.13,0,.18-.2.19-.35s0-.59,0-.87V6H25.8V24.51a1.29,1.29,0,0,1-1.29,1.29H3a1.29,1.29,0,0,1-1.29-1.29V12.45c0-.12,0-.25,0-.37v0a.19.19,0,0,0-.07-.18,2.52,2.52,0,0,0-.33-.14L.51,11.4a.43.43,0,0,0-.31,0c-.13,0-.18.18-.2.33V24.51a3,3,0,0,0,3,3H24.51a3,3,0,0,0,3-3V3A3,3,0,0,0,24.51,0ZM25.8,4.26H1.71V3A1.29,1.29,0,0,1,3,1.71H24.51A1.29,1.29,0,0,1,25.8,3Z"/>
        <rect class="cls-1" x="19.41" y="16.97" width="4.04" height="4.04" rx="1.63" ry="1.63"/>
        <rect class="cls-1" x="19.41" y="10.42" width="4.04" height="4.04" rx="1.63" ry="1.63"/>
        <rect class="cls-1" x="11.72" y="10.42" width="4.04" height="4.04" rx="1.63" ry="1.63"/>
        <path class="cls-1" d="M8.1,12.06v.77a1.64,1.64,0,0,1-1.63,1.64H5.69a1.64,1.64,0,0,1-1.63-1.64v-.77a1.63,1.63,0,0,1,1.63-1.64h.78A1.63,1.63,0,0,1,8.1,12.06Z"/>
        <rect class="cls-1" x="4.06" y="16.97" width="4.04" height="4.04" rx="1.63" ry="1.63"/>
      </g>
    </g>
  </g>
</svg>
