<svg xmlns="http://www.w3.org/2000/svg" viewBox="0 0 24 24">
  <defs>
    <style>
      .cls-1 {
        fill: #d7272d;
      }
    </style>
  </defs>
  <title>Asset 1</title>
  <g id="Layer_2" data-name="Layer 2">
    <g id="Layer_1-2" data-name="Layer 1">
      <g>
        <path class="cls-1" d="M13.75,16.23v.68a1.43,1.43,0,0,1-1.43,1.42h-.67a1.43,1.43,0,0,1-1.43-1.42v-.68a1.42,1.42,0,0,1,1.43-1.42h.67A1.42,1.42,0,0,1,13.75,16.23Z"/>
        <path class="cls-1" d="M21.38,0H2.62A2.62,2.62,0,0,0,0,2.62V6.75a.14.14,0,0,0,.07.1A1.43,1.43,0,0,0,.35,7l.7.27a.35.35,0,0,0,.26,0A.32.32,0,0,0,1.49,7V5.21h21V21.38a1.14,1.14,0,0,1-1.13,1.13H2.62a1.14,1.14,0,0,1-1.13-1.13V10.5a.17.17,0,0,0-.06-.15,2.68,2.68,0,0,0-.3-.12L.44,9.94a.42.42,0,0,0-.27,0c-.11,0-.15.16-.17.28V21.38A2.62,2.62,0,0,0,2.62,24H21.38A2.62,2.62,0,0,0,24,21.38V2.62A2.62,2.62,0,0,0,21.38,0Zm1.13,3.72h-21V2.62A1.14,1.14,0,0,1,2.62,1.49H21.38a1.14,1.14,0,0,1,1.13,1.13Z"/>
        <path class="cls-1" d="M20.46,16.23v.68A1.43,1.43,0,0,1,19,18.33h-.68a1.42,1.42,0,0,1-1.42-1.42v-.68a1.41,1.41,0,0,1,1.42-1.42H19A1.42,1.42,0,0,1,20.46,16.23Z"/>
        <rect class="cls-1" x="16.94" y="9.09" width="3.53" height="3.53" rx="1.43" ry="1.43"/>
        <rect class="cls-1" x="10.22" y="9.09" width="3.53" height="3.53" rx="1.43" ry="1.43"/>
        <path class="cls-1" d="M7.06,10.52v.68a1.42,1.42,0,0,1-1.41,1.42H5A1.43,1.43,0,0,1,3.54,11.2v-.68A1.43,1.43,0,0,1,5,9.09h.69A1.42,1.42,0,0,1,7.06,10.52Z"/>
        <rect class="cls-1" x="3.54" y="14.81" width="3.52" height="3.52" rx="1.42" ry="1.42"/>
      </g>
    </g>
  </g>
</svg>
