<svg xmlns="http://www.w3.org/2000/svg" viewBox="0 0 33.05 34.39">
  <defs>
    <style>
      .cls-1 {
        fill: #d7272d;
      }
    </style>
  </defs>
  <title>home</title>
  <g id="Layer_2" data-name="Layer 2">
    <g id="Layer_1-2" data-name="Layer 1">
      <g>
        <g>
          <path class="cls-1" d="M20.62,33.39h-2V20.44H14.42v13h-2V19.45a1,1,0,0,1,1-1h6.2a1,1,0,0,1,1,1Z"/>
          <path class="cls-1" d="M4.07,22.71V8.7H5.93V22.4a.41.41,0,0,1-.27.35l-1,.35A.41.41,0,0,1,4.07,22.71Z"/>
          <path class="cls-1" d="M29,8.7V29.58a4.82,4.82,0,0,1-4.8,4.81H8.88a4.82,4.82,0,0,1-4.81-4.81V25.82a.44.44,0,0,1,.27-.41l1-.35a.41.41,0,0,1,.54.34v4.18a3,3,0,0,0,3,3h15.3a3,3,0,0,0,2.95-3V8.7Z"/>
          <path class="cls-1" d="M32.86,12.22l-.93.59a.37.37,0,0,1-.44,0l-1.3-1L20,3.6c-1.13-.93-2.12-1.73-3.43-1.74H16.5c-1.31,0-2.29.81-3.43,1.74L11.44,4.91,2.86,11.77l-1.25,1-.06,0a.42.42,0,0,1-.43,0L.2,12.24l-.1-.1L0,12.05a.43.43,0,0,1,.12-.49l1.54-1.24L11.9,2.16C13.14,1.14,14.54,0,16.53,0s3.38,1.14,4.63,2.16l1.62,1.3,8.56,6.85,1.54,1.23,0,0A.41.41,0,0,1,32.86,12.22Z"/>
        </g>
        <path class="cls-1" d="M9.41,10.57,14.2,6.68C15.08,6,13.83,4.73,13,5.43L8.17,9.32c-.88.72.37,2,1.24,1.25Z"/>
      </g>
    </g>
  </g>
</svg>
