<svg xmlns="http://www.w3.org/2000/svg" viewBox="0 0 41.43 35.06">
  <defs>
    <style>
      .cls-1 {
        fill: #fff;
      }
    </style>
  </defs>
  <title>huacasWhite</title>
  <g id="Layer_2" data-name="Layer 2">
    <g id="Layer_1-2" data-name="Layer 1">
      <g>
        <g>
          <path class="cls-1" d="M35.28,8.71a8.33,8.33,0,0,1-.58.84c-.05.08-.13.18-.24.06a2.83,2.83,0,0,0-.37-.32h0l-.67-.57c0-.08,0-.14.06-.22a3.89,3.89,0,0,0,1-2.8,4.11,4.11,0,0,0-.91-2.53,4.14,4.14,0,0,0-7.07,1.08c-.1.28-.2.36-.48.23a5.56,5.56,0,0,0-1-.36c-.18-.06-.2-.14-.14-.29A5.65,5.65,0,0,1,29.57.07a5.32,5.32,0,0,1,4.07,1s0,0,.06,0l1.14,1.07c.18.39.48.7.67,1.1A5.67,5.67,0,0,1,35.28,8.71Z" transform="translate(0 0)"/>
          <path class="cls-1" d="M34.4,15.89a1.34,1.34,0,0,0,0,.2c-.69-5.57-6.7-9.94-14-9.94a5.45,5.45,0,0,1-5-2.58,3.65,3.65,0,0,0-1.22-1.19V5.09a.18.18,0,0,1-.18.17l-1.4.17a.19.19,0,0,1-.19-.19V1.34a.88.88,0,0,1,.91-.88,4.12,4.12,0,0,1,3.49,2.05A3.72,3.72,0,0,0,20.43,4.4c8.19,0,14.94,5,15.73,11.49Z" transform="translate(0 0)"/>
          <path class="cls-1" d="M36.24,17.17A10.35,10.35,0,0,1,36,19.33a12.36,12.36,0,0,1-5.29,7.55v5a1.91,1.91,0,0,1-1.34,2.19l-2.9.9a2.21,2.21,0,0,1-.62.09,2.07,2.07,0,0,1-1.24-.41A2,2,0,0,1,23.79,33V29.66a18.72,18.72,0,0,1-4.37.26c0,.41,0,.9,0,1.34v.62a1.92,1.92,0,0,1-1.33,2.19l-2.82.87a2.16,2.16,0,0,1-1.69-.13A2,2,0,0,1,12.52,33v-3.7c0-.37,0-.79,0-1.1a14.93,14.93,0,0,1-5.41-4.18H3.37a2.18,2.18,0,0,1-2.24-2L0,16.2A.86.86,0,0,1,0,16a2.18,2.18,0,0,1,2.24-2.12h2.9a13.07,13.07,0,0,1,6-7.07.23.23,0,0,1,.32.08l.38,1.3c0,.15,0,.25-.09.31a10.38,10.38,0,0,0-5,6.25l0,.11-.11.25a.88.88,0,0,1-.81.54H2.24a.48.48,0,0,0-.48.3l1.11,5.79a.52.52,0,0,1,0,.17c0,.19.22.35.48.35H7.52a.86.86,0,0,1,.66.3l.28.33a13.57,13.57,0,0,0,5.25,3.92c.62.26.61.69.57,2.51V33a.26.26,0,0,0,.11.22.3.3,0,0,0,.3.05l2.86-.88.13-.06a3.1,3.1,0,0,0,0-.46v-.59c-.11-2.62-.08-2.65.25-2.95a.85.85,0,0,1,.69-.24,17.85,17.85,0,0,0,5.84-.37.88.88,0,0,1,.75.17.83.83,0,0,1,.33.7V33a.26.26,0,0,0,.11.22.29.29,0,0,0,.3.05l2.86-.88.13-.06c0-.1,0-.3,0-.46V26.41a.9.9,0,0,1,.41-.75c3.24-2.1,5.1-5.2,5.1-8.49,0-.17,0-.34,0-.51v0c0-.18,0-.35-.05-.52v0a1.34,1.34,0,0,1,0-.2h1.76c0,.21.05.41.06.63,0,0,0,0,0,0C36.23,16.75,36.24,17,36.24,17.17Z" transform="translate(0 0)"/>
          <path class="cls-1" d="M41.43,16.63A3.39,3.39,0,0,1,38,20a3.5,3.5,0,0,1-2-.65,2.86,2.86,0,0,1-.5-.42,3.91,3.91,0,0,1-1.06-2.25v0c0-.18,0-.35-.05-.52v0a1.34,1.34,0,0,1,0-.2h1.76a3.21,3.21,0,0,0,.06.63s0,0,0,0a2.23,2.23,0,0,0,.56,1.14,1.78,1.78,0,0,0,1.26.53,1.62,1.62,0,0,0,1.63-1.64.33.33,0,0,1,.34-.29H41.1A.32.32,0,0,1,41.43,16.63Z" transform="translate(0 0)"/>
          <path class="cls-1" d="M12.44,14.7a.26.26,0,0,1-.21.1H10.72a.3.3,0,0,1-.22-.1.26.26,0,0,1-.1-.21V13.12a.26.26,0,0,1,.1-.21.3.3,0,0,1,.22-.1h1.51a.35.35,0,0,1,.31.31v1.37a.26.26,0,0,1-.1.21Z" transform="translate(0 0)"/>
        </g>
        <path class="cls-1" d="M29.17,23.56a8.13,8.13,0,0,0,3.75-4.66c.29-.92-1.16-1.32-1.45-.4a6.59,6.59,0,0,1-3.06,3.77.75.75,0,0,0,.76,1.29Z" transform="translate(0 0)"/>
      </g>
    </g>
  </g>
</svg>
