<svg xmlns="http://www.w3.org/2000/svg" viewBox="0 0 31 29.32">
  <defs>
    <style>
      .cls-1 {
        fill: #fff;
      }
    </style>
  </defs>
  <title>optionsWhite</title>
  <g id="Layer_2" data-name="Layer 2">
    <g id="Layer_1-2" data-name="Layer 1">
      <g>
        <path class="cls-1" d="M10.19,12.49H2.64a2.57,2.57,0,0,1-1.83-.77A2.48,2.48,0,0,1,0,9.85V2.64A2.52,2.52,0,0,1,.81.77,2.59,2.59,0,0,1,2.64,0h7.55A2.46,2.46,0,0,1,12,.81a2.55,2.55,0,0,1,.74,1.83V9.85A2.58,2.58,0,0,1,12,11.69h0A2.43,2.43,0,0,1,10.19,12.49ZM2.64,2a.63.63,0,0,0-.44.21.54.54,0,0,0-.2.43V9.85a.52.52,0,0,0,.2.43.57.57,0,0,0,.44.21h7.55a.48.48,0,0,0,.37-.18.61.61,0,0,0,.18-.46V2.64a.61.61,0,0,0-.19-.46A.46.46,0,0,0,10.19,2Z"/>
        <path class="cls-1" d="M28,12.49H20.43a2.56,2.56,0,0,1-1.82-.77,2.48,2.48,0,0,1-.81-1.87V2.64A2.52,2.52,0,0,1,18.61.77,2.58,2.58,0,0,1,20.43,0H28A2.46,2.46,0,0,1,29.8.81a2.57,2.57,0,0,1,.74,1.83V9.85a2.58,2.58,0,0,1-.74,1.84A2.41,2.41,0,0,1,28,12.49ZM20.43,2a.63.63,0,0,0-.43.21.54.54,0,0,0-.2.43V9.85a.52.52,0,0,0,.2.43.57.57,0,0,0,.43.21H28a.46.46,0,0,0,.36-.18.58.58,0,0,0,.19-.46V2.64a.61.61,0,0,0-.19-.46A.46.46,0,0,0,28,2Z"/>
        <path class="cls-1" d="M10.19,29.32H2.64a2.57,2.57,0,0,1-1.83-.77A2.48,2.48,0,0,1,0,26.68V19.47A2.52,2.52,0,0,1,.81,17.6a2.59,2.59,0,0,1,1.83-.77h7.55a2.46,2.46,0,0,1,1.81.81,2.55,2.55,0,0,1,.74,1.83v7.21A2.58,2.58,0,0,1,12,28.52h0A2.43,2.43,0,0,1,10.19,29.32ZM2.64,18.83A.63.63,0,0,0,2.2,19a.54.54,0,0,0-.2.43v7.21a.52.52,0,0,0,.2.43.57.57,0,0,0,.44.21h7.55a.48.48,0,0,0,.37-.18.61.61,0,0,0,.18-.46V19.47a.61.61,0,0,0-.19-.46.46.46,0,0,0-.36-.18Z"/>
        <path class="cls-1" d="M24.17,29.32A6.83,6.83,0,1,1,31,22.5,6.84,6.84,0,0,1,24.17,29.32Zm0-11.65A4.83,4.83,0,1,0,29,22.5,4.83,4.83,0,0,0,24.17,17.67Z"/>
      </g>
    </g>
  </g>
</svg>
