<svg xmlns="http://www.w3.org/2000/svg" viewBox="0 0 22.6 22.6"><defs><style>.cls-1{fill:#d7272d;}</style></defs><title>Settings</title><g id="Layer_2" data-name="Layer 2"><g id="Layer_1-2" data-name="Layer 1"><path class="cls-1" d="M2.62,13.37c0-.31-.1-.67-.17-1a.37.37,0,0,0-.24-.26c-.43-.18-.86-.33-1.29-.49l-.85-.31c-.07,0-.07-.07-.07-.12a9.43,9.43,0,0,1,.07-1.06c0-.31.09-.62.13-.93a.42.42,0,0,1,.38-.4l1.1-.18.81-.14A.57.57,0,0,0,3,8.06a6,6,0,0,1,.25-.58.52.52,0,0,0-.08-.58c-.35-.44-.7-.89-1-1.34C2,5.48,2,5.4,1.92,5.32a.36.36,0,0,1,0-.36,2.66,2.66,0,0,1,.28-.38c.29-.34.55-.71.84-1.06s.3-.32.68-.19c.54.19,1,.44,1.58.66l.29.11a.45.45,0,0,0,.39,0A7.17,7.17,0,0,0,6.6,3.6a.26.26,0,0,0,.1-.24c0-.32,0-.63-.06-.94s-.08-.79-.09-1.18A.36.36,0,0,1,6.84.81C7.46.58,8.1.38,8.75.21c.18,0,.23,0,.34.13.37.54.77,1.07,1.12,1.63l.11.15a.41.41,0,0,0,.34.16l.65,0a.32.32,0,0,0,.29-.2l.53-1,.41-.78c.13-.24.24-.3.5-.24.64.15,1.29.28,1.93.46a.37.37,0,0,1,.29.34c0,.22,0,.44,0,.67,0,.47,0,1,.06,1.43a.46.46,0,0,0,.24.41l.42.22a.43.43,0,0,0,.45,0l1.1-.62c.25-.14.51-.28.78-.4a.26.26,0,0,1,.28,0,3.25,3.25,0,0,1,.39.35c.37.38.72.77,1.09,1.14.19.19.21.3.07.53L19.26,6c-.06.1-.12.2-.17.3a.41.41,0,0,0,0,.4c.08.17.17.33.25.5a.41.41,0,0,0,.39.23c.65,0,1.29.12,1.95.11a1.09,1.09,0,0,1,.18,0c.18,0,.26.14.3.31l.15.67c.09.39.17.79.27,1.19a.4.4,0,0,1-.24.53c-.46.23-.92.47-1.39.68l-.27.13a.6.6,0,0,0-.4.62,4,4,0,0,1,0,.49.36.36,0,0,0,.18.37l.71.52c.31.24.64.44.94.7l.12.12a.28.28,0,0,1,.06.29c-.14.42-.29.83-.44,1.24-.07.18-.12.35-.18.53a.42.42,0,0,1-.52.32c-.62-.05-1.24-.11-1.86-.21a.48.48,0,0,0-.51.2c-.14.18-.29.36-.41.54a.59.59,0,0,0-.07.59q.22.61.48,1.23l.21.52a1,1,0,0,1,.06.25.36.36,0,0,1-.14.32l-1.44,1.1a.33.33,0,0,1-.5,0c-.4-.29-.77-.61-1.15-.93-.13-.11-.26-.22-.4-.32a.55.55,0,0,0-.52-.08L14,19.8a.34.34,0,0,0-.21.25c-.12.41-.2.84-.28,1.26s-.11.55-.16.82-.13.32-.36.34a13.94,13.94,0,0,1-1.83.12.33.33,0,0,1-.31-.18.94.94,0,0,1-.1-.28c-.16-.55-.38-1.09-.52-1.65a.53.53,0,0,0-.43-.41c-.31-.06-.6-.16-.91-.2a.57.57,0,0,0-.51.17L7.2,21.29a1.06,1.06,0,0,1-.15.15.41.41,0,0,1-.54.07c-.5-.27-1-.57-1.46-.83L5,20.63a.29.29,0,0,1-.12-.24A1.14,1.14,0,0,1,4.9,20c.13-.53.3-1.05.42-1.59,0-.11,0-.23,0-.34a.29.29,0,0,0-.09-.25c-.23-.21-.42-.46-.64-.68A.6.6,0,0,0,4,17l-1.73.4c-.36.1-.45.06-.63-.27s-.48-.9-.71-1.36l0-.09A.35.35,0,0,1,1,15.16l.82-.78c.23-.21.45-.43.69-.62S2.62,13.6,2.62,13.37Zm8.72,4.49A6.59,6.59,0,1,0,4.73,11.2,6.55,6.55,0,0,0,11.34,17.86Z"/></g></g></svg>