<svg xmlns="http://www.w3.org/2000/svg" viewBox="0 0 38 34.64">
  <defs>
    <style>
      .cls-1 {
        fill: #fff;
      }
    </style>
  </defs>
  <title>tandasWhite</title>
  <g id="Layer_2" data-name="Layer 2">
    <g id="Layer_1-2" data-name="Layer 1">
      <g>
        <path class="cls-1" d="M21.27.08a17.32,17.32,0,0,0-7.88,1l-.26.1-.36.15c-.13.09-.12.22-.1.41,0,0,.1,1,.13,1.16a.26.26,0,0,0,.25.16L13.23,3a4.08,4.08,0,0,1,.54-.22A15.21,15.21,0,0,1,19.54,1.7,15.62,15.62,0,0,1,33.59,24.15v0c-.07.15-.15.27-.23.42a14.12,14.12,0,0,1-1,1.7c0,.12.06.24.1.37a.78.78,0,0,0,.38.54.77.77,0,0,0,.59.09l.22-.06.15,0h0A16.42,16.42,0,0,0,35,25,17.31,17.31,0,0,0,21.27.08ZM19.54,32.94A15.64,15.64,0,0,1,3.92,17.32a15.34,15.34,0,0,1,.7-4.62,13.3,13.3,0,0,1,.67-1.76,4.9,4.9,0,0,1,.24-.52c-.07-.14-.14-.28-.2-.42a.73.73,0,0,0-.46-.46.83.83,0,0,0-.6,0L4,9.65q-.31.63-.57,1.29c-.15.36-.28.73-.4,1.11a17.56,17.56,0,0,0-.25,9.78,17.31,17.31,0,0,0,17.27,12.8,16.38,16.38,0,0,0,2.11-.19.34.34,0,0,0,.28-.33V32.88a.18.18,0,0,0-.22-.18A15,15,0,0,1,19.54,32.94Z"/>
        <path class="cls-1" d="M22.76,19.26a3,3,0,0,1-.12.84,2.38,2.38,0,0,1-.39.78,2.48,2.48,0,0,1-.72.63,3.55,3.55,0,0,1-1.1.4V23.1a.25.25,0,0,1-.08.18.24.24,0,0,1-.19.08H19a.27.27,0,0,1-.26-.26V22q-.51,0-.93-.09c-.27,0-.53-.08-.78-.14a.35.35,0,0,1-.17-.09.21.21,0,0,1-.07-.17v-.94a.24.24,0,0,1,.07-.18.22.22,0,0,1,.17-.07h0l.52,0,.66,0,.65,0h.49a1.81,1.81,0,0,0,1.2-.3,1.17,1.17,0,0,0,.32-.88,1.23,1.23,0,0,0-.05-.35,1,1,0,0,0-.18-.29,2.12,2.12,0,0,0-.34-.3L19.75,18l-1.73-1a4.54,4.54,0,0,1-.76-.55,2.74,2.74,0,0,1-.47-.57,2,2,0,0,1-.25-.61,3,3,0,0,1-.07-.67,2.91,2.91,0,0,1,.12-.85A2,2,0,0,1,17,13a2.11,2.11,0,0,1,.69-.53,3.19,3.19,0,0,1,1-.32V11a.22.22,0,0,1,.08-.18.25.25,0,0,1,.18-.08h1.2a.27.27,0,0,1,.19.08.25.25,0,0,1,.08.18v1.05c.36,0,.72.05,1.06.09a7.37,7.37,0,0,1,.78.12.34.34,0,0,1,.17.09.18.18,0,0,1,.07.16v1a.24.24,0,0,1-.06.17.22.22,0,0,1-.16.07h0c-.44-.05-.87-.08-1.3-.1s-.85,0-1.28,0a1.83,1.83,0,0,0-1.07.25.81.81,0,0,0-.32.68.94.94,0,0,0,.05.3.67.67,0,0,0,.17.27,1.35,1.35,0,0,0,.33.28l.53.32,1.57.88a5.09,5.09,0,0,1,.89.61,2.92,2.92,0,0,1,.56.63,2.12,2.12,0,0,1,.29.68,3.67,3.67,0,0,1,.08.75"/>
        <path class="cls-1" d="M38,25.75l0,.09a.54.54,0,0,1-.07.13l-.2.18a1.47,1.47,0,0,1-.4.14l-.86.22-.95.24L34.6,27l-.18.05-.5.12-.15,0-.17,0-.22.06a.77.77,0,0,1-.59-.09.78.78,0,0,1-.38-.54c0-.13-.07-.25-.1-.37l0-.13c0-.15-.08-.29-.11-.44-.09-.32-.17-.63-.25-.95,0-.06,0-.12-.05-.18-.07-.28-.15-.56-.22-.85l-.3-1.18a.7.7,0,0,1,0-.35s0,0,0-.06a.35.35,0,0,0,.07-.12c.07-.05.14-.13.21-.17a1.19,1.19,0,0,1,.41-.15,1.14,1.14,0,0,1,.37-.05A.75.75,0,0,1,33,22a1.25,1.25,0,0,1,.17.49c.08.28.15.57.23.86s.15.56.22.84v.06c.06.24.13.48.19.72s.06.26.1.4l.26-.06L35,25l.08,0,.37-.1.57-.14.86-.22a.9.9,0,0,1,.36-.05.71.71,0,0,1,.51.3,1.88,1.88,0,0,1,.18.5A.77.77,0,0,1,38,25.75Z"/>
        <path class="cls-1" d="M7.11,14.22s0,0,0,0a.78.78,0,0,1,0,.14c-.06.07-.11.14-.18.21a1,1,0,0,1-.37.21.84.84,0,0,1-.36.11.71.71,0,0,1-.55-.21,1.5,1.5,0,0,1-.26-.44c-.12-.26-.24-.54-.37-.81s-.22-.49-.33-.74v0l0,0c-.11-.24-.22-.48-.32-.72a3.34,3.34,0,0,1-.17-.38l-.26.12L3,12.05l-.09,0-.24.11-.64.29-.81.37A1.15,1.15,0,0,1,.9,13a.72.72,0,0,1-.54-.21,1.54,1.54,0,0,1-.27-.46A.77.77,0,0,1,0,11.86a.38.38,0,0,0,0-.1.59.59,0,0,1,.06-.14l.16-.2a1,1,0,0,1,.37-.21l.81-.37h0l.87-.4.8-.37.78-.35h0l.1,0,.26-.11a.83.83,0,0,1,.6,0,.73.73,0,0,1,.46.46c.06.14.13.28.2.42s.07.16.11.25.07.14.1.22,0,0,0,0c.13.27.26.56.38.84s.3.64.44,1,.34.74.5,1.1A.67.67,0,0,1,7.11,14.22Z"/>
        <path class="cls-1" d="M5.34,18.39a8.54,8.54,0,0,0,2,6.17c.55.66,1.61-.14,1.06-.8a7.1,7.1,0,0,1-1.69-5.18c.06-.85-1.25-1-1.32-.19Z"/>
        <path class="cls-1" d="M33.76,18.26a8.51,8.51,0,0,0-1-6.4c-.45-.72-1.61-.08-1.16.65a7.1,7.1,0,0,1,.94,5.37c-.19.83,1.08,1.21,1.27.38Z"/>
        <path class="cls-1" d="M5.76,10.94H1.45v-.11l.87-.4.8-.37.78-.35h0l.1,0,.26-.11a.83.83,0,0,1,.6,0,.73.73,0,0,1,.46.46c.06.14.13.28.2.42s.07.16.11.25.07.14.1.22S5.76,10.92,5.76,10.94Z"/>
      </g>
    </g>
  </g>
</svg>
