<?xml version="1.0" encoding="utf-8"?>
<!-- Generator: Adobe Illustrator 23.0.1, SVG Export Plug-In . SVG Version: 6.00 Build 0)  -->
<svg version="1.1" id="Layer_1" xmlns="http://www.w3.org/2000/svg" xmlns:xlink="http://www.w3.org/1999/xlink" x="0px" y="0px"
	 viewBox="0 0 638.8 251.4" style="enable-background:new 0 0 638.8 251.4;" xml:space="preserve">
<style type="text/css">
	.st0{fill:#FFFFFF;}
</style>
<g>
	<path class="st0" d="M234.5,148.9l16.7-48.6c2.3-6.6,5.4-9.2,10.3-9.2c4.7,0,8.1,2.9,10.2,9.2l16.4,48.6h-14.2l-3.9-13.1h-17.8
		l-3.8,13.1L234.5,148.9z M266.9,125.5l-6-20.2l-5.8,20.2H266.9z"/>
	<path class="st0" d="M334.5,91.2v44.1c0,3,1.3,4.6,4.5,4.6c1.3,0,2.5-0.2,3.8-0.5l1.2,9.3c-2.8,0.5-5.6,0.8-8.4,0.9
		c-9.5,0-13.6-4.2-13.6-12.7V91.2H334.5z"/>
	<path class="st0" d="M347.1,135.2c0-7.9,3.5-12.7,12.5-14.1c4.1-0.6,8.3-0.9,12.4-1c0-4-2-5.4-6.7-5.4c-5.2,0.1-10.5,0.4-15.7,1.1
		l-1-9.5c5.8-1.1,11.6-1.6,17.5-1.7c9.9,0,18.2,2.8,18.2,14.4v17.6c0,3.1-0.1,5.6-0.4,8.6c-5.2,3.1-11.9,4.3-19.5,4.3
		C352.1,149.5,347.2,144.8,347.1,135.2L347.1,135.2z M372,128.2c-2.7,0.1-5.5,0.4-8.2,0.9c-3.1,0.8-4.4,1.8-4.4,5.9
		c0,3.7,2.2,4.8,6.1,4.8c2.1,0.1,4.2-0.2,6.2-0.9c0.2-2,0.3-3.9,0.3-5.9L372,128.2z M371,99.9h-9.5l6.4-10.9h12.5L371,99.9z"/>
	<path class="st0" d="M406.3,148.9h-12.5v-31.4c0-3.1,0.1-5.6,0.4-8.6c5.3-3,12.2-4.3,19.4-4.3c16.2,0,18,6.9,18,16.7v27.6h-12.5
		v-26.7c0-5.3-1-7.5-7.1-7.5c-1.8,0-3.7,0.3-5.4,0.9c-0.2,2-0.3,3.9-0.3,5.9V148.9L406.3,148.9z"/>
	<path class="st0" d="M470.3,94.7c0-4.5,1.7-6.3,6.8-6.3s6.8,1.7,6.8,6.3s-1.7,6.3-6.8,6.3S470.3,99.2,470.3,94.7L470.3,94.7z
		 M470.8,104.6h12.7v44.3h-12.7V104.6z"/>
	<path class="st0" d="M518.8,91.2h12.6v45.4c0,3.1-0.1,5.6-0.4,8.6c-5,3-11.9,4.3-18,4.3c-14.8,0-21-5.2-21-22.5
		c0-17,6.2-22.4,19.8-22.4c2.3,0,4.7,0.2,7,0.6L518.8,91.2L518.8,91.2z M514,114.6c-9.1,0-9.4,5.4-9.4,12.4c0,6.2,0.3,12.5,8.4,12.5
		c1.9,0,3.8-0.2,5.5-0.8c0.2-2,0.3-3.9,0.3-5.9v-17.5C517.3,114.9,515.7,114.7,514,114.6z"/>
	<path class="st0" d="M539.3,135.2c0-7.9,3.5-12.7,12.5-14.1c4.1-0.6,8.3-0.9,12.5-1c0-4-2-5.4-6.7-5.4c-5.2,0.1-10.5,0.5-15.7,1.1
		l-1-9.5c5.8-1.1,11.6-1.6,17.5-1.7c9.9,0,18.2,2.8,18.2,14.4v17.6c0,3.1-0.1,5.6-0.4,8.6c-5.3,3.1-11.9,4.3-19.5,4.3
		C544.3,149.5,539.3,144.8,539.3,135.2L539.3,135.2z M564.3,128.2c-2.7,0.1-5.5,0.4-8.2,0.9c-3.1,0.8-4.4,1.8-4.4,5.9
		c0,3.7,2.2,4.7,6.1,4.7c2.1,0.1,4.2-0.2,6.2-0.9c0.2-2,0.3-3.9,0.3-5.9V128.2z"/>
	<path class="st0" d="M453,91.2v13.4h10.9v10.4H453v20.4c0,3,1.3,4.5,4.5,4.5c1.3,0,2.6-0.1,4-0.2l1,8.9c-2.8,0.5-5.6,0.8-8.4,0.9
		c-9.5,0-13.6-4.2-13.6-12.7V91.2H453z"/>
	<path class="st0" d="M304.4,91.2v13.4h10.9v10.4h-10.9v20.4c0,3,1.3,4.5,4.5,4.5c1.3,0,2.6-0.1,4-0.2l1,8.9
		c-2.8,0.5-5.6,0.8-8.4,0.9c-9.5,0-13.6-4.2-13.6-12.7V91.2H304.4z"/>
	<path class="st0" d="M149.2,145.4v-33.4c0-2.3-1.8-2.9-4.1-2.9h-17.9c-2.3,0-13.5-1.6-13.5-14.2V27.3c0-2.3-1.4-4.4-3.7-4.4H67.3
		c-2.3,0.1-4.1,2-4.1,4.4v67.9c0,32.9,21.1,54.3,54,54.3h28C147.4,149.5,149.3,147.6,149.2,145.4z"/>
	<path class="st0" d="M207.5,145.4V95.7c0-32.9-22.1-55.1-55-55.1h-27.9c-2.3,0-3.2,2.6-3.2,4.9v38.3c0,2.3,1,4.9,3.2,4.9H145
		c2.3,0,9.3-0.4,9.3,12.3v44.4c0,2.3,2.9,4.1,5.2,4.1h42.8C204.7,149.5,207.5,147.6,207.5,145.4z"/>
	<g>
		<path class="st0" d="M282.5,67.6c-1.3,2.3-3.1,4.1-5.4,5.5c-2.3,1.4-5,2.3-8,2.9c-3.1,0.6-6.4,0.8-9.8,0.8c-1.3,0-2.7,0-4.1-0.1
			c-1.4-0.1-2.7-0.1-4.1-0.2c-1.3-0.1-2.5-0.2-3.7-0.3c-1.1-0.1-2.1-0.2-2.9-0.4c-1.6-0.3-2.7-0.7-3.4-1.4c-0.7-0.7-1-2-1-3.8V21.8
			c0-1.8,0.3-3.1,1-3.8c0.6-0.7,1.7-1.2,3.3-1.4c0.7-0.1,1.6-0.2,2.7-0.3c1.1-0.1,2.3-0.2,3.6-0.3c1.3-0.1,2.7-0.1,4.1-0.2
			c1.4-0.1,2.7-0.1,4-0.1c3.8,0,7.3,0.3,10.4,0.8c3.1,0.6,5.8,1.5,8,2.8c2.2,1.3,3.9,3,5.2,5.1c1.2,2.1,1.8,4.8,1.8,8V34
			c0,2.6-0.6,5-1.8,7.1c-1.2,2.1-2.8,3.7-5,4.7c2.1,1.1,3.9,2.6,5.2,4.7c1.3,2,2,4.4,2,7.2v1.2C284.5,62.4,283.9,65.3,282.5,67.6z
			 M270.9,33.4c0-2.2-0.8-3.8-2.4-4.9c-1.6-1-4.5-1.6-8.6-1.6c-0.3,0-0.8,0-1.3,0c-0.6,0-1.2,0-1.8,0c-0.6,0-1.2,0-1.8,0
			c-0.6,0-1,0-1.2,0V41h9c1.6,0,2.9-0.2,4-0.5c1-0.3,1.9-0.8,2.5-1.4c0.6-0.6,1.1-1.2,1.3-2c0.3-0.8,0.4-1.6,0.4-2.4V33.4z
			 M271.2,57.7c0-1.9-0.6-3.6-1.8-5c-1.2-1.4-3.5-2.1-6.7-2.1h-9v15c0.3,0,0.8,0,1.4,0c0.6,0,1.3,0,1.9,0c0.7,0,1.3,0,1.9,0
			c0.6,0,1.1,0,1.3,0c4.1,0,7-0.6,8.5-1.8c1.6-1.2,2.4-3,2.4-5.2V57.7z"/>
		<path class="st0" d="M415.1,75.1c-0.3,0.2-0.7,0.4-1.2,0.6c-1.1,0.3-2.4,0.5-4.1,0.8c-1.7,0.3-3.7,0.4-6,0.4
			c-5.4,0-9.7-1.6-12.9-4.9c-3.2-3.3-4.8-8-4.8-14.3v-6.4c0-6.2,1.6-11,4.8-14.3c3.2-3.3,7.5-4.9,12.9-4.9c2.3,0,4.3,0.1,6,0.4
			c1.7,0.3,3.1,0.5,4.1,0.8c0.6,0.2,1,0.3,1.2,0.6c0.3,0.2,0.4,0.6,0.4,1.2v6.8c0,0.4-0.1,0.7-0.4,0.9c-0.3,0.2-0.6,0.3-1,0.3h-0.2
			c-1.4-0.2-2.8-0.3-4.1-0.4c-1.3-0.1-3-0.2-5.2-0.2c-0.9,0-1.7,0.1-2.4,0.4c-0.8,0.3-1.4,0.8-2,1.4c-0.6,0.7-1,1.6-1.3,2.7
			c-0.3,1.1-0.5,2.5-0.5,4.2v6.4c0,1.7,0.2,3.1,0.5,4.2c0.3,1.1,0.8,2,1.3,2.7c0.6,0.7,1.2,1.2,2,1.4c0.8,0.3,1.6,0.4,2.4,0.4
			c2.2,0,3.9,0,5.2-0.2c1.3-0.1,2.6-0.2,4.1-0.4h0.2c0.4,0,0.7,0.1,1,0.3c0.3,0.2,0.4,0.5,0.4,0.9V74
			C415.5,74.5,415.3,74.9,415.1,75.1z"/>
		<path class="st0" d="M462.4,64.8c-0.9,2.5-2.1,4.7-3.8,6.4c-1.7,1.8-3.7,3.1-6.2,4.1c-2.5,1-5.3,1.5-8.5,1.5
			c-3.2,0-6.1-0.5-8.5-1.5c-2.5-1-4.5-2.3-6.2-4.1c-1.7-1.8-3-3.9-3.8-6.4c-0.9-2.5-1.3-5.4-1.3-8.5v-5.5c0-3.2,0.4-6,1.3-8.5
			c0.9-2.5,2.1-4.7,3.8-6.4c1.7-1.8,3.8-3.1,6.2-4.1c2.5-1,5.3-1.5,8.5-1.5c3.2,0,6.1,0.5,8.5,1.5c2.5,1,4.5,2.3,6.2,4.1
			c1.7,1.8,2.9,3.9,3.8,6.4c0.9,2.5,1.3,5.4,1.3,8.5v5.5C463.7,59.4,463.3,62.3,462.4,64.8z M450.9,50.7c0-6.4-2.3-9.7-7-9.7
			c-2.3,0-4,0.8-5.2,2.4c-1.2,1.6-1.8,4-1.8,7.2v5.5c0,3.2,0.6,5.6,1.8,7.3c1.2,1.6,2.9,2.5,5.2,2.5c4.6,0,7-3.2,7-9.7V50.7z"/>
	</g>
	<path class="st0" d="M353.1,76.8h-12.5V45.4c0-3.1,0.1-5.6,0.4-8.6c5.3-3,12.2-4.3,19.4-4.3c16.2,0,18,6.9,18,16.7v27.6h-12.5V50.2
		c0-5.3-1-7.5-7.1-7.5c-1.8,0-3.7,0.3-5.4,0.9c-0.2,2-0.3,3.9-0.3,5.9V76.8L353.1,76.8z"/>
	<path class="st0" d="M291.9,62.6c0-7.9,3.5-12.7,12.5-14.1c4.1-0.6,8.3-0.9,12.5-1c0-4-2-5.4-6.7-5.4c-5.2,0.1-10.5,0.5-15.7,1.1
		l-1-9.5c5.8-1.1,11.6-1.6,17.5-1.7c9.9,0,18.2,2.8,18.2,14.4v17.6c0,3.1-0.1,5.6-0.4,8.6c-5.3,3.1-11.9,4.3-19.5,4.3
		C296.8,76.8,291.9,72.1,291.9,62.6L291.9,62.6z M316.8,55.6c-2.7,0.1-5.5,0.4-8.2,0.9c-3.1,0.8-4.4,1.8-4.4,5.9
		c0,3.7,2.2,4.7,6.1,4.7c2.1,0.1,4.2-0.2,6.2-0.9c0.2-2,0.3-3.9,0.3-5.9V55.6z"/>
</g>
<g>
	<path class="st0" d="M42.8,223.3c-0.2,0.2-0.5,0.4-0.8,0.4h-3.1c-0.3,0-0.6-0.1-0.8-0.4c-0.2-0.2-0.4-0.5-0.4-0.9v-20.2H17.1v20.2
		c0,0.3-0.1,0.6-0.4,0.9c-0.2,0.2-0.5,0.4-0.8,0.4h-3.1c-0.3,0-0.6-0.1-0.8-0.4c-0.2-0.2-0.4-0.5-0.4-0.9v-43c0-0.3,0.1-0.6,0.4-0.9
		c0.2-0.2,0.5-0.4,0.8-0.4h3.1c0.3,0,0.6,0.1,0.8,0.4c0.2,0.2,0.4,0.5,0.4,0.9v17.7h20.6v-17.7c0-0.3,0.1-0.6,0.4-0.9
		c0.2-0.2,0.5-0.4,0.8-0.4H42c0.3,0,0.6,0.1,0.8,0.4c0.2,0.2,0.4,0.5,0.4,0.9v43C43.2,222.7,43.1,223,42.8,223.3z"/>
	<path class="st0" d="M89.1,223.3c-0.2,0.2-0.5,0.4-0.8,0.4h-3c-0.3,0-0.6-0.1-0.8-0.4c-0.2-0.2-0.3-0.5-0.3-0.9v-1.2
		c-1.7,0.9-3.3,1.7-4.7,2.1c-1.4,0.5-3.1,0.7-4.9,0.7c-3.7,0-6.3-1.1-8-3.3c-1.7-2.2-2.5-5.3-2.5-9.4v-20.1c0-0.3,0.1-0.6,0.4-0.9
		c0.2-0.2,0.5-0.4,0.8-0.4h2.9c0.3,0,0.6,0.1,0.8,0.4c0.2,0.2,0.4,0.5,0.4,0.9v20.1c0,1.5,0.1,2.8,0.4,3.9c0.3,1,0.7,1.9,1.2,2.5
		c0.5,0.6,1.2,1,2.1,1.3c0.8,0.3,1.8,0.4,3,0.4c1.3,0,2.6-0.2,4-0.7c1.4-0.4,2.8-1,4.2-1.7v-25.7c0-0.3,0.1-0.6,0.4-0.9
		c0.2-0.2,0.5-0.4,0.8-0.4h3c0.3,0,0.6,0.1,0.8,0.4c0.2,0.2,0.3,0.5,0.3,0.9v31.2C89.4,222.7,89.3,223,89.1,223.3z"/>
	<path class="st0" d="M132.4,223.3c-0.2,0.2-0.5,0.4-0.8,0.4h-2.8c-0.3,0-0.6-0.1-0.8-0.4c-0.2-0.2-0.4-0.5-0.4-0.9v-1.3
		c-1.4,0.9-2.9,1.6-4.5,2.1c-1.5,0.6-3.1,0.9-4.8,0.9c-1.3,0-2.5-0.2-3.7-0.5c-1.2-0.3-2.2-0.8-3.1-1.6c-0.9-0.8-1.6-1.8-2.2-3.1
		c-0.5-1.3-0.8-2.9-0.8-4.8v-0.7c0-1.7,0.3-3.1,0.8-4.3c0.5-1.2,1.3-2.3,2.5-3.1c1.1-0.8,2.6-1.5,4.5-1.9c1.8-0.4,4.1-0.6,6.8-0.6
		h4.5v-2.4c0-2.6-0.5-4.4-1.4-5.4c-1-1-2.6-1.5-5-1.5c-2,0-3.7,0.1-5.2,0.2c-1.5,0.1-2.8,0.2-4,0.3h-0.3c-0.3,0-0.5-0.1-0.8-0.2
		c-0.2-0.1-0.3-0.4-0.3-0.8v-2.1c0-0.7,0.4-1,1.3-1.2c1.2-0.2,2.6-0.4,4.1-0.5c1.5-0.2,3.2-0.2,5.3-0.2c4.2,0,7.2,1,9,3
		c1.8,2,2.7,4.8,2.7,8.5v21.3C132.7,222.7,132.6,223,132.4,223.3z M127.4,207.4H123c-1.8,0-3.3,0.1-4.5,0.3c-1.2,0.2-2.2,0.6-2.8,1
		c-0.7,0.5-1.2,1.1-1.4,1.8c-0.3,0.8-0.4,1.7-0.4,2.8v0.7c0,2.2,0.5,3.7,1.4,4.4c1,0.8,2.3,1.1,4.1,1.1c1.4,0,2.8-0.2,4-0.6
		c1.3-0.4,2.7-1,4.1-1.8V207.4z"/>
	<path class="st0" d="M173.2,223c-0.2,0.2-0.5,0.3-1,0.4c-1,0.2-2.2,0.4-3.5,0.5c-1.3,0.1-2.7,0.2-4.1,0.2c-2,0-3.9-0.4-5.5-1.1
		c-1.6-0.7-2.9-1.7-4-3c-1.1-1.3-1.9-2.8-2.5-4.7c-0.6-1.8-0.8-3.9-0.8-6.1v-4.8c0-2.2,0.3-4.3,0.8-6.1c0.6-1.8,1.4-3.4,2.5-4.7
		c1.1-1.3,2.4-2.3,4-3c1.6-0.7,3.4-1.1,5.5-1.1c1.4,0,2.8,0.1,4.1,0.2c1.3,0.1,2.5,0.3,3.5,0.5c0.5,0.1,0.8,0.2,1,0.4
		c0.2,0.2,0.2,0.5,0.2,0.9v2.2c0,0.3-0.1,0.6-0.3,0.7c-0.2,0.1-0.4,0.2-0.7,0.2h-0.2c-1.3-0.2-2.5-0.3-3.6-0.3
		c-1.1-0.1-2.4-0.1-3.9-0.1c-2.4,0-4.3,0.8-5.6,2.5c-1.3,1.7-2,4.2-2,7.7v4.8c0,3.5,0.6,6,1.9,7.7c1.3,1.7,3.2,2.5,5.6,2.5
		c1.5,0,2.8,0,3.9-0.1c1.1-0.1,2.3-0.2,3.6-0.3h0.2c0.3,0,0.5,0.1,0.7,0.2c0.2,0.1,0.3,0.4,0.3,0.7v2.2
		C173.5,222.5,173.4,222.8,173.2,223z"/>
	<path class="st0" d="M215,223.3c-0.2,0.2-0.5,0.4-0.8,0.4h-2.8c-0.3,0-0.6-0.1-0.8-0.4c-0.2-0.2-0.4-0.5-0.4-0.9v-1.3
		c-1.4,0.9-2.9,1.6-4.5,2.1c-1.5,0.6-3.1,0.9-4.8,0.9c-1.3,0-2.5-0.2-3.7-0.5c-1.2-0.3-2.2-0.8-3.1-1.6c-0.9-0.8-1.6-1.8-2.2-3.1
		c-0.5-1.3-0.8-2.9-0.8-4.8v-0.7c0-1.7,0.3-3.1,0.8-4.3c0.5-1.2,1.3-2.3,2.5-3.1c1.1-0.8,2.6-1.5,4.5-1.9c1.8-0.4,4.1-0.6,6.8-0.6
		h4.5v-2.4c0-2.6-0.5-4.4-1.4-5.4c-1-1-2.6-1.5-5-1.5c-2,0-3.7,0.1-5.2,0.2c-1.5,0.1-2.8,0.2-4,0.3h-0.3c-0.3,0-0.5-0.1-0.8-0.2
		c-0.2-0.1-0.3-0.4-0.3-0.8v-2.1c0-0.7,0.4-1,1.3-1.2c1.2-0.2,2.6-0.4,4.1-0.5c1.5-0.2,3.2-0.2,5.3-0.2c4.2,0,7.2,1,9,3
		c1.8,2,2.7,4.8,2.7,8.5v21.3C215.4,222.7,215.2,223,215,223.3z M210.1,207.4h-4.5c-1.8,0-3.3,0.1-4.5,0.3c-1.2,0.2-2.2,0.6-2.8,1
		c-0.7,0.5-1.2,1.1-1.4,1.8c-0.3,0.8-0.4,1.7-0.4,2.8v0.7c0,2.2,0.5,3.7,1.4,4.4c1,0.8,2.3,1.1,4.1,1.1c1.4,0,2.8-0.2,4-0.6
		c1.3-0.4,2.7-1,4.1-1.8V207.4z"/>
	<path class="st0" d="M256.6,215.2c0,3.1-1,5.3-3.1,6.8c-2.1,1.4-4.8,2.1-8.2,2.1c-0.6,0-1.2,0-2,0c-0.8,0-1.6-0.1-2.5-0.2
		c-0.9-0.1-1.7-0.2-2.6-0.3c-0.9-0.1-1.7-0.3-2.4-0.4c-0.8-0.2-1.3-0.6-1.3-1.2v-2.1c0-0.3,0.1-0.5,0.3-0.7c0.2-0.2,0.5-0.2,0.8-0.2
		h0.2c0.7,0.1,1.5,0.2,2.4,0.2c0.9,0.1,1.7,0.2,2.6,0.2c0.9,0.1,1.7,0.1,2.5,0.2c0.8,0,1.4,0.1,2,0.1c2,0,3.5-0.3,4.5-0.9
		c1-0.6,1.5-1.8,1.5-3.4c0-0.9-0.3-1.8-1-2.4c-0.6-0.7-1.8-1.6-3.6-2.6l-6.1-3.7c-1.8-1.1-3.3-2.4-4.5-3.8c-1.1-1.4-1.7-3-1.7-5
		c0-1.6,0.3-2.9,0.8-3.9c0.6-1,1.3-1.9,2.3-2.5c1-0.6,2.1-1.1,3.4-1.3c1.3-0.2,2.8-0.4,4.3-0.4c1.7,0,3.3,0.1,4.9,0.2
		c1.6,0.1,3.1,0.3,4.5,0.6c0.8,0.1,1.1,0.5,1.1,1.2v2c0,0.7-0.3,1-1,1h-0.2c-1-0.1-2.4-0.2-4.2-0.3c-1.7-0.1-3.5-0.2-5.2-0.2
		c-1.7,0-3,0.2-4.1,0.6c-1,0.4-1.5,1.4-1.5,2.9c0,0.9,0.3,1.7,1,2.4c0.7,0.7,1.7,1.4,3.1,2.2l6,3.6c2.5,1.5,4.2,3,5.2,4.4
		C256.1,211.8,256.6,213.4,256.6,215.2z"/>
	<path class="st0" d="M337.2,223c0,0.2-0.1,0.4-0.2,0.5c-0.1,0.1-0.3,0.2-0.5,0.2h-4.2c-0.3,0-0.5,0-0.6-0.1
		c-0.1-0.1-0.2-0.2-0.4-0.3l-3-3.3c-1.5,1.3-3.2,2.3-5.2,3.1c-2,0.7-4.2,1.1-6.7,1.1c-1.9,0-3.7-0.2-5.4-0.6c-1.8-0.4-3.4-1-4.7-1.9
		c-1.4-0.9-2.5-2-3.4-3.5c-0.8-1.4-1.3-3.2-1.3-5.3v-0.5c0-1.3,0.2-2.4,0.5-3.5c0.4-1,0.9-2,1.6-3c0.7-1,1.6-1.9,2.7-2.8
		c1.1-0.9,2.4-1.8,3.9-2.8l-0.4-0.5c-1.4-1.7-2.5-3.1-3.4-4.3c-0.8-1.2-1.5-2.2-1.9-3.1c-0.4-0.9-0.7-1.7-0.8-2.4
		c-0.1-0.7-0.2-1.4-0.2-2v-0.5c0-3.3,1.1-5.7,3.4-7.3c2.3-1.6,5.4-2.4,9.3-2.4c1.7,0,3.3,0.2,4.7,0.6c1.4,0.4,2.7,1,3.8,1.8
		c1.1,0.8,1.9,1.8,2.6,3c0.6,1.2,0.9,2.6,0.9,4.2l0,0.5c0,1-0.1,2-0.4,2.9c-0.2,0.9-0.7,1.8-1.4,2.8c-0.7,0.9-1.6,1.9-2.8,3
		c-1.2,1-2.8,2.2-4.6,3.5l-1.7,1.2l10.9,11.9c0.8-1.5,1.4-3.1,1.8-5c0.4-1.8,0.6-3.8,0.6-5.8v-0.9c0-0.7,0.3-1,1-1h2.6
		c0.7,0,1,0.3,1,1v0.9c0,2.7-0.3,5.2-0.9,7.6c-0.6,2.4-1.6,4.5-2.9,6.4l5.4,5.8C337.1,222.5,337.2,222.7,337.2,223z M313.5,203.7
		c-1.2,0.8-2.2,1.5-3,2.1c-0.8,0.7-1.4,1.3-1.9,2c-0.5,0.7-0.8,1.3-1,2.1c-0.2,0.7-0.3,1.6-0.3,2.5v0.5c0,1.2,0.3,2.3,0.8,3.2
		c0.5,0.9,1.2,1.6,2,2.2s1.8,1,3,1.2c1.1,0.3,2.3,0.4,3.5,0.4c1.9,0,3.6-0.3,5.1-0.9c1.5-0.6,2.8-1.3,3.9-2.3L313.5,203.7z
		 M323.4,187.5c0-2-0.6-3.5-1.9-4.3c-1.3-0.9-3-1.3-5.1-1.3c-2.3,0-4.1,0.4-5.6,1.2c-1.4,0.8-2.1,2.3-2.1,4.4v0.5
		c0,0.5,0,1.1,0.1,1.6c0.1,0.5,0.3,1.1,0.6,1.8c0.3,0.7,0.9,1.5,1.5,2.4c0.7,0.9,1.6,2,2.8,3.4l0.6,0.7l2-1.3
		c1.4-0.9,2.6-1.7,3.5-2.4c0.9-0.7,1.6-1.3,2.1-2c0.5-0.6,0.8-1.3,1-1.9c0.2-0.7,0.3-1.4,0.3-2.3V187.5z"/>
	<path class="st0" d="M410.8,182.9H399v39.5c0,0.3-0.1,0.6-0.3,0.9c-0.2,0.2-0.5,0.4-0.8,0.4h-3.3c-0.3,0-0.6-0.1-0.8-0.4
		c-0.2-0.2-0.3-0.5-0.3-0.9v-39.5h-11.8c-0.3,0-0.6-0.1-0.8-0.2c-0.2-0.2-0.4-0.4-0.4-0.7v-2.7c0-0.3,0.1-0.6,0.4-0.8
		c0.2-0.2,0.5-0.3,0.8-0.3h29c0.8,0,1.1,0.4,1.1,1.1v2.7C411.9,182.6,411.5,182.9,410.8,182.9z"/>
	<path class="st0" d="M452.9,223.3c-0.2,0.2-0.5,0.4-0.8,0.4h-2.8c-0.3,0-0.6-0.1-0.8-0.4c-0.2-0.2-0.4-0.5-0.4-0.9v-1.3
		c-1.4,0.9-2.9,1.6-4.5,2.1c-1.5,0.6-3.1,0.9-4.8,0.9c-1.3,0-2.5-0.2-3.7-0.5c-1.2-0.3-2.2-0.8-3.1-1.6c-0.9-0.8-1.6-1.8-2.2-3.1
		c-0.5-1.3-0.8-2.9-0.8-4.8v-0.7c0-1.7,0.3-3.1,0.8-4.3c0.5-1.2,1.3-2.3,2.5-3.1c1.1-0.8,2.6-1.5,4.5-1.9c1.8-0.4,4.1-0.6,6.8-0.6
		h4.5v-2.4c0-2.6-0.5-4.4-1.4-5.4c-1-1-2.6-1.5-5-1.5c-2,0-3.7,0.1-5.2,0.2c-1.5,0.1-2.8,0.2-4,0.3H432c-0.3,0-0.5-0.1-0.8-0.2
		c-0.2-0.1-0.3-0.4-0.3-0.8v-2.1c0-0.7,0.4-1,1.3-1.2c1.2-0.2,2.6-0.4,4.1-0.5c1.5-0.2,3.2-0.2,5.3-0.2c4.2,0,7.2,1,9,3
		c1.8,2,2.7,4.8,2.7,8.5v21.3C453.3,222.7,453.1,223,452.9,223.3z M447.9,207.4h-4.5c-1.8,0-3.3,0.1-4.5,0.3c-1.2,0.2-2.2,0.6-2.8,1
		c-0.7,0.5-1.2,1.1-1.4,1.8c-0.3,0.8-0.4,1.7-0.4,2.8v0.7c0,2.2,0.5,3.7,1.4,4.4c1,0.8,2.3,1.1,4.1,1.1c1.4,0,2.8-0.2,4-0.6
		c1.3-0.4,2.7-1,4.1-1.8V207.4z"/>
	<path class="st0" d="M498.5,223.3c-0.2,0.2-0.5,0.4-0.8,0.4h-2.9c-0.3,0-0.6-0.1-0.8-0.4c-0.2-0.2-0.4-0.5-0.4-0.9v-20.1
		c0-1.5-0.1-2.8-0.4-3.9c-0.3-1-0.7-1.9-1.2-2.5c-0.5-0.6-1.2-1-2-1.3c-0.8-0.3-1.8-0.4-3-0.4c-1.3,0-2.6,0.2-4,0.7
		c-1.4,0.4-2.8,1-4.2,1.7v25.7c0,0.3-0.1,0.6-0.4,0.9c-0.2,0.2-0.5,0.4-0.8,0.4h-3c-0.3,0-0.6-0.1-0.8-0.4c-0.2-0.2-0.3-0.5-0.3-0.9
		v-31.2c0-0.3,0.1-0.6,0.3-0.9c0.2-0.2,0.5-0.4,0.8-0.4h3c0.3,0,0.6,0.1,0.8,0.4c0.2,0.2,0.3,0.5,0.3,0.9v1.2
		c1.7-0.9,3.3-1.7,4.7-2.1c1.4-0.5,3.1-0.7,4.9-0.7c3.7,0,6.3,1.1,8,3.3c1.7,2.2,2.5,5.3,2.5,9.4v20.1
		C498.9,222.7,498.8,223,498.5,223.3z"/>
	<path class="st0" d="M543.3,222.6c-0.1,0.2-0.5,0.4-1.1,0.5c-1.9,0.4-3.7,0.6-5.6,0.8c-1.8,0.2-3.7,0.2-5.5,0.2
		c-2.2,0-4.2-0.4-5.8-1.1c-1.6-0.7-3-1.7-4.1-3.1c-1.1-1.3-1.9-2.9-2.4-4.8c-0.5-1.9-0.8-3.9-0.8-6.2v-4.4c0-4.8,1.1-8.5,3.3-11.1
		c2.2-2.6,5.5-3.9,9.9-3.9c0.9,0,2,0.1,3.3,0.2c1.3,0.1,2.5,0.3,3.7,0.5v-11.4c0-0.3,0.1-0.6,0.3-0.8c0.2-0.2,0.5-0.3,0.8-0.3h3.1
		c0.3,0,0.6,0.1,0.8,0.3c0.2,0.2,0.3,0.5,0.3,0.8v42.8C543.5,222,543.5,222.4,543.3,222.6z M538.2,194.7c-1-0.2-2.2-0.3-3.6-0.4
		c-1.4,0-2.5-0.1-3.5-0.1c-2.9,0-5,0.9-6.1,2.7c-1.1,1.8-1.7,4.3-1.7,7.6v4.4c0,3.3,0.6,5.9,1.7,7.7c1.1,1.8,3.2,2.7,6.1,2.7
		c1,0,2.2,0,3.5-0.1c1.3-0.1,2.5-0.2,3.5-0.2V194.7z"/>
	<path class="st0" d="M586.5,223.3c-0.2,0.2-0.5,0.4-0.8,0.4h-2.8c-0.3,0-0.6-0.1-0.8-0.4c-0.2-0.2-0.4-0.5-0.4-0.9v-1.3
		c-1.4,0.9-2.9,1.6-4.5,2.1c-1.5,0.6-3.1,0.9-4.8,0.9c-1.3,0-2.5-0.2-3.7-0.5c-1.2-0.3-2.2-0.8-3.1-1.6c-0.9-0.8-1.6-1.8-2.2-3.1
		c-0.5-1.3-0.8-2.9-0.8-4.8v-0.7c0-1.7,0.3-3.1,0.8-4.3c0.5-1.2,1.3-2.3,2.5-3.1c1.1-0.8,2.6-1.5,4.5-1.9c1.8-0.4,4.1-0.6,6.8-0.6
		h4.5v-2.4c0-2.6-0.5-4.4-1.4-5.4c-1-1-2.6-1.5-5-1.5c-2,0-3.7,0.1-5.2,0.2c-1.5,0.1-2.8,0.2-4,0.3h-0.3c-0.3,0-0.5-0.1-0.8-0.2
		c-0.2-0.1-0.3-0.4-0.3-0.8v-2.1c0-0.7,0.4-1,1.3-1.2c1.2-0.2,2.6-0.4,4.1-0.5c1.5-0.2,3.2-0.2,5.3-0.2c4.2,0,7.2,1,9,3
		c1.8,2,2.7,4.8,2.7,8.5v21.3C586.9,222.7,586.8,223,586.5,223.3z M581.6,207.4h-4.5c-1.8,0-3.3,0.1-4.5,0.3c-1.2,0.2-2.1,0.6-2.8,1
		c-0.7,0.5-1.2,1.1-1.4,1.8c-0.3,0.8-0.4,1.7-0.4,2.8v0.7c0,2.2,0.5,3.7,1.4,4.4c1,0.8,2.3,1.1,4.1,1.1c1.4,0,2.8-0.2,4-0.6
		c1.3-0.4,2.7-1,4.1-1.8V207.4z"/>
	<path class="st0" d="M628.1,215.2c0,3.1-1,5.3-3.1,6.8c-2.1,1.4-4.8,2.1-8.2,2.1c-0.6,0-1.2,0-2,0c-0.8,0-1.6-0.1-2.5-0.2
		c-0.9-0.1-1.7-0.2-2.6-0.3c-0.9-0.1-1.7-0.3-2.4-0.4c-0.8-0.2-1.3-0.6-1.3-1.2v-2.1c0-0.3,0.1-0.5,0.3-0.7c0.2-0.2,0.5-0.2,0.8-0.2
		h0.2c0.7,0.1,1.5,0.2,2.4,0.2c0.9,0.1,1.7,0.2,2.6,0.2c0.9,0.1,1.7,0.1,2.5,0.2c0.8,0,1.4,0.1,2,0.1c2,0,3.5-0.3,4.5-0.9
		c1-0.6,1.5-1.8,1.5-3.4c0-0.9-0.3-1.8-1-2.4c-0.6-0.7-1.8-1.6-3.6-2.6l-6.1-3.7c-1.8-1.1-3.3-2.4-4.5-3.8c-1.1-1.4-1.7-3-1.7-5
		c0-1.6,0.3-2.9,0.8-3.9c0.6-1,1.3-1.9,2.3-2.5c1-0.6,2.1-1.1,3.4-1.3c1.3-0.2,2.8-0.4,4.3-0.4c1.7,0,3.3,0.1,4.9,0.2
		c1.6,0.1,3.1,0.3,4.5,0.6c0.8,0.1,1.1,0.5,1.1,1.2v2c0,0.7-0.3,1-1,1h-0.2c-1-0.1-2.4-0.2-4.2-0.3c-1.7-0.1-3.5-0.2-5.2-0.2
		c-1.7,0-3,0.2-4.1,0.6c-1,0.4-1.5,1.4-1.5,2.9c0,0.9,0.3,1.7,1,2.4c0.7,0.7,1.7,1.4,3.1,2.2l6,3.6c2.5,1.5,4.2,3,5.2,4.4
		C627.6,211.8,628.1,213.4,628.1,215.2z"/>
</g>
</svg>
